<svg xmlns="http://www.w3.org/2000/svg" xmlns:xlink="http://www.w3.org/1999/xlink" width="500" zoomAndPan="magnify" viewBox="0 0 375 374.999991" height="500" preserveAspectRatio="xMidYMid meet" version="1.0"><defs><clipPath id="0d3356e8a3"><path d="M 10.386719 10.386719 L 364.613281 10.386719 L 364.613281 364.613281 L 10.386719 364.613281 Z M 10.386719 10.386719 " clip-rule="nonzero"/></clipPath><clipPath id="0923ac2d7e"><path d="M 59.136719 10.386719 L 315.863281 10.386719 C 342.789062 10.386719 364.613281 32.210938 364.613281 59.136719 L 364.613281 315.863281 C 364.613281 342.789062 342.789062 364.613281 315.863281 364.613281 L 59.136719 364.613281 C 32.210938 364.613281 10.386719 342.789062 10.386719 315.863281 L 10.386719 59.136719 C 10.386719 32.210938 32.210938 10.386719 59.136719 10.386719 Z M 59.136719 10.386719 " clip-rule="nonzero"/></clipPath><clipPath id="c4dba85a0a"><path d="M 46.179688 54.304688 L 323 54.304688 L 323 320.554688 L 46.179688 320.554688 Z M 46.179688 54.304688 " clip-rule="nonzero"/></clipPath></defs><g clip-path="url(#0d3356e8a3)"><g clip-path="url(#0923ac2d7e)"><path fill="#ffffff" d="M 10.386719 10.386719 L 364.613281 10.386719 L 364.613281 364.613281 L 10.386719 364.613281 Z M 10.386719 10.386719 " fill-opacity="1" fill-rule="nonzero"/></g></g><g clip-path="url(#c4dba85a0a)"><path fill="#000000" d="M 318.691406 127.433594 C 307.273438 83.203125 269.398438 54.71875 223.675781 54.695312 C 170.75 54.65625 117.816406 54.679688 64.890625 54.679688 L 85.632812 91.183594 C 131.671875 91.09375 177.691406 91.117188 223.730469 91.15625 C 238.917969 91.15625 252.601562 95.613281 264.132812 105.71875 C 282.09375 121.4375 287.546875 141.832031 285.164062 164.726562 C 282.4375 191.238281 265.023438 213.5 241.261719 219.195312 C 231.1875 221.625 220.34375 220.667969 209.910156 221.714844 C 203.996094 222.324219 200.992188 219.871094 198.199219 214.945312 C 178.964844 181.125 159.433594 147.460938 139.992188 113.769531 C 136.449219 107.609375 132.578125 107.546875 129.078125 113.589844 C 123.917969 122.515625 118.757812 131.445312 113.597656 140.371094 C 91.796875 178.121094 69.988281 215.847656 48.210938 253.625 C 47.550781 254.785156 47.101562 256.054688 46.1875 258.101562 L 52.097656 258.101562 C 93.019531 258.101562 133.949219 258.191406 174.875 257.964844 C 177.851562 257.941406 179.917969 258.578125 181.601562 260.027344 C 182.671875 260.917969 183.550781 262.117188 184.441406 263.683594 C 195.128906 282.558594 206.0625 301.296875 216.816406 320.148438 L 259.152344 320.148438 C 254.105469 311.378906 249.261719 303.042969 244.460938 294.703125 C 237.621094 282.867188 230.820312 271.015625 224.066406 259.246094 C 224.882812 258.609375 225.136719 258.242188 225.429688 258.226562 C 226.65625 258.113281 227.914062 258.070312 229.160156 258.023438 C 247.875 257.246094 264.835938 251.390625 280.226562 240.800781 C 318.230469 214.746094 328.921875 167.132812 318.691406 127.433594 Z M 109.179688 221.199219 C 117.636719 206.523438 125.800781 192.371094 134.441406 177.386719 C 139.308594 185.839844 144.011719 194.011719 148.746094 202.234375 C 152.363281 208.484375 155.972656 214.773438 159.679688 221.199219 Z M 109.179688 221.199219 " fill-opacity="1" fill-rule="nonzero"/></g></svg>