<svg xmlns="http://www.w3.org/2000/svg" xmlns:xlink="http://www.w3.org/1999/xlink" width="350" zoomAndPan="magnify" viewBox="0 0 262.5 157.5" height="210" preserveAspectRatio="xMidYMid meet" version="1.0"><defs><g/></defs><g fill="#4169e1" fill-opacity="1"><g transform="translate(15.743137, 106.058106)"><g><path d="M 31.578125 -58.390625 C 52.003906 -58.390625 62.21875 -48.660156 62.21875 -29.203125 C 62.21875 -9.734375 52.003906 0 31.578125 0 L 6.28125 0 L 6.28125 -58.390625 Z M 25.03125 -14 L 31.234375 -14 C 39.097656 -14 43.03125 -18.21875 43.03125 -26.65625 L 43.03125 -31.75 C 43.03125 -40.175781 39.097656 -44.390625 31.234375 -44.390625 L 25.03125 -44.390625 Z M 25.03125 -14 "/></g></g></g><g fill="#4169e1" fill-opacity="1"><g transform="translate(74.553363, 106.058106)"><g><path d="M 27.25 -45.828125 C 34.09375 -45.828125 39.664062 -44.679688 43.96875 -42.390625 C 48.269531 -40.097656 50.421875 -36.378906 50.421875 -31.234375 L 50.421875 -13.75 C 50.421875 -12.789062 50.644531 -12 51.09375 -11.375 C 51.550781 -10.75 52.226562 -10.4375 53.125 -10.4375 L 56.1875 -10.4375 L 56.1875 -0.671875 C 56.019531 -0.566406 55.582031 -0.382812 54.875 -0.125 C 54.164062 0.125 53.160156 0.375 51.859375 0.625 C 50.554688 0.882812 49.054688 1.015625 47.359375 1.015625 C 44.078125 1.015625 41.375 0.519531 39.25 -0.46875 C 37.132812 -1.457031 35.679688 -2.828125 34.890625 -4.578125 C 32.734375 -2.878906 30.328125 -1.519531 27.671875 -0.5 C 25.015625 0.507812 21.898438 1.015625 18.328125 1.015625 C 7.804688 1.015625 2.546875 -3.171875 2.546875 -11.546875 C 2.546875 -15.898438 3.71875 -19.222656 6.0625 -21.515625 C 8.414062 -23.804688 11.796875 -25.375 16.203125 -26.21875 C 20.617188 -27.070312 26.394531 -27.5 33.53125 -27.5 L 33.53125 -29.703125 C 33.53125 -31.460938 32.921875 -32.789062 31.703125 -33.6875 C 30.484375 -34.59375 28.910156 -35.046875 26.984375 -35.046875 C 25.234375 -35.046875 23.722656 -34.734375 22.453125 -34.109375 C 21.179688 -33.492188 20.546875 -32.507812 20.546875 -31.15625 L 20.546875 -30.8125 L 3.90625 -30.8125 C 3.84375 -31.09375 3.8125 -31.488281 3.8125 -32 C 3.8125 -36.238281 5.832031 -39.601562 9.875 -42.09375 C 13.925781 -44.582031 19.71875 -45.828125 27.25 -45.828125 Z M 33.53125 -19.515625 C 28.71875 -19.515625 25.164062 -18.988281 22.875 -17.9375 C 20.582031 -16.894531 19.4375 -15.5 19.4375 -13.75 C 19.4375 -10.914062 21.359375 -9.5 25.203125 -9.5 C 27.410156 -9.5 29.347656 -10.09375 31.015625 -11.28125 C 32.691406 -12.476562 33.53125 -13.953125 33.53125 -15.703125 Z M 33.53125 -19.515625 "/></g></g></g><g fill="#4169e1" fill-opacity="1"><g transform="translate(123.943696, 106.058106)"><g><path d="M 16.96875 0 L 0 -44.8125 L 18.15625 -44.8125 L 26.390625 -16.890625 L 26.984375 -16.890625 L 35.21875 -44.8125 L 51.859375 -44.8125 L 34.71875 0 Z M 16.96875 0 "/></g></g></g><g fill="#4169e1" fill-opacity="1"><g transform="translate(168.581637, 106.058106)"><g><path d="M 5.6875 -50.078125 L 5.6875 -61.53125 L 22.578125 -61.53125 L 22.578125 -50.078125 Z M 5.6875 0 L 5.6875 -44.8125 L 22.578125 -44.8125 L 22.578125 0 Z M 5.6875 0 "/></g></g></g><g fill="#4169e1" fill-opacity="1"><g transform="translate(189.627399, 106.058106)"><g><path d="M 37.6875 0 L 36.234375 -6.359375 C 32.953125 -1.441406 28.203125 1.015625 21.984375 1.015625 C 15.929688 1.015625 11.265625 -0.960938 7.984375 -4.921875 C 4.703125 -8.878906 3.0625 -14.734375 3.0625 -22.484375 C 3.0625 -30.179688 4.703125 -35.992188 7.984375 -39.921875 C 11.265625 -43.859375 15.929688 -45.828125 21.984375 -45.828125 C 27.128906 -45.828125 31.316406 -44.101562 34.546875 -40.65625 L 34.546875 -61.53125 L 51.4375 -61.53125 L 51.4375 0 Z M 27.25 -33.359375 C 22.382812 -33.359375 19.953125 -30.441406 19.953125 -24.609375 L 19.953125 -20.109375 C 19.953125 -14.335938 22.382812 -11.453125 27.25 -11.453125 C 29.738281 -11.453125 31.601562 -12.328125 32.84375 -14.078125 C 34.09375 -15.835938 34.71875 -18.132812 34.71875 -20.96875 L 34.71875 -23.765625 C 34.71875 -26.597656 34.09375 -28.90625 32.84375 -30.6875 C 31.601562 -32.46875 29.738281 -33.359375 27.25 -33.359375 Z M 27.25 -33.359375 "/></g></g></g></svg>