<svg xmlns="http://www.w3.org/2000/svg" xmlns:xlink="http://www.w3.org/1999/xlink" width="500" zoomAndPan="magnify" viewBox="0 0 375 374.999991" height="500" preserveAspectRatio="xMidYMid meet" version="1.0"><defs><clipPath id="fbc7711f5e"><path d="M 155 90 L 324.847656 90 L 324.847656 336 L 155 336 Z M 155 90 " clip-rule="nonzero"/></clipPath><clipPath id="9336d3bd7e"><path d="M 50.347656 37.5 L 220 37.5 L 220 283 L 50.347656 283 Z M 50.347656 37.5 " clip-rule="nonzero"/></clipPath></defs><g clip-path="url(#fbc7711f5e)"><path fill="#ffffff" d="M 324.5 334.894531 C 316.613281 322.324219 308.714844 309.753906 300.8125 297.183594 L 288.957031 278.375 L 277.050781 259.558594 L 253.207031 221.949219 L 230.839844 186.722656 L 259.640625 144.429688 L 267.222656 133.3125 C 269.761719 129.609375 272.277344 125.898438 274.832031 122.210938 L 290.152344 100.074219 L 296.347656 91.128906 L 214.652344 90.578125 L 212.933594 93.65625 C 210.414062 98.160156 207.953125 102.695312 205.46875 107.21875 L 203.609375 110.617188 L 201.78125 114.035156 L 198.09375 120.84375 L 190.8125 134.511719 L 187.101562 141.5625 C 185.6875 139.414062 184.273438 137.269531 182.851562 135.125 L 178.511719 128.628906 L 174.125 122.15625 L 169.738281 115.695312 L 165.292969 109.265625 C 162.3125 104.976562 159.289062 100.71875 156.222656 96.496094 C 156.136719 96.34375 156.007812 96.246094 155.835938 96.203125 C 155.667969 96.15625 155.507812 96.179688 155.355469 96.269531 C 155.203125 96.355469 155.105469 96.484375 155.0625 96.65625 C 155.015625 96.824219 155.039062 96.984375 155.128906 97.136719 C 157.351562 101.851562 159.640625 106.539062 161.992188 111.199219 L 165.507812 118.183594 L 169.070312 125.148438 L 172.660156 132.089844 L 176.285156 139.007812 C 178.726562 143.609375 181.160156 148.214844 183.632812 152.796875 L 187.203125 159.410156 L 191.449219 152.742188 C 194.222656 148.382812 196.933594 144.003906 199.675781 139.628906 L 207.820312 126.46875 L 211.863281 119.863281 L 213.878906 116.574219 L 215.882812 113.285156 C 217.90625 109.933594 219.933594 106.589844 221.941406 103.234375 C 223.539062 103.234375 272.378906 103.046875 274.320312 103.007812 L 265.925781 116.335938 C 263.542969 120.136719 261.113281 123.902344 258.707031 127.691406 L 251.457031 139.03125 L 222.433594 184.367188 L 220.921875 186.722656 L 222.433594 188.917969 L 247.597656 225.652344 L 272.820312 262.347656 L 285.429688 280.6875 L 298.082031 299.003906 C 306.511719 311.234375 314.96875 323.4375 323.457031 335.609375 C 323.554688 335.75 323.6875 335.835938 323.855469 335.867188 C 324.023438 335.902344 324.175781 335.871094 324.320312 335.777344 C 324.460938 335.683594 324.550781 335.550781 324.585938 335.382812 C 324.621094 335.214844 324.59375 335.0625 324.5 334.917969 Z M 324.5 334.894531 " fill-opacity="1" fill-rule="nonzero"/></g><g clip-path="url(#9336d3bd7e)"><path fill="#ffffff" d="M 213.058594 262.089844 L 209.542969 255.097656 L 205.984375 248.140625 L 202.386719 241.199219 L 198.765625 234.28125 C 196.324219 229.675781 193.894531 225.070312 191.417969 220.492188 L 187.847656 213.875 L 183.597656 220.546875 C 180.824219 224.902344 178.117188 229.285156 175.375 233.660156 L 167.222656 246.820312 L 163.1875 253.425781 L 161.164062 256.71875 L 159.167969 260.007812 C 157.148438 263.359375 155.136719 266.707031 153.136719 270.054688 C 151.535156 270.054688 102.695312 270.25 100.75 270.285156 L 109.121094 256.957031 C 111.511719 253.160156 113.941406 249.386719 116.347656 245.601562 L 123.597656 234.257812 L 152.621094 188.921875 L 154.128906 186.566406 L 152.621094 184.371094 L 127.457031 147.714844 L 102.234375 111.097656 L 89.625 92.792969 L 76.960938 74.515625 C 68.539062 62.320312 60.082031 50.148438 51.589844 38 C 51.496094 37.863281 51.367188 37.777344 51.203125 37.742188 C 51.042969 37.710938 50.890625 37.738281 50.746094 37.824219 C 50.601562 37.917969 50.511719 38.046875 50.472656 38.214844 C 50.433594 38.382812 50.460938 38.539062 50.550781 38.683594 C 58.445312 51.238281 66.339844 63.78125 74.234375 76.320312 L 86.09375 95.117188 L 97.996094 113.890625 L 121.835938 151.425781 L 144.210938 186.570312 L 115.425781 228.863281 L 107.84375 239.984375 C 105.304688 243.679688 102.792969 247.394531 100.234375 251.085938 L 84.914062 273.21875 L 78.726562 282.167969 L 160.417969 282.714844 L 162.144531 279.613281 C 164.660156 275.105469 167.128906 270.570312 169.605469 266.046875 L 171.464844 262.648438 L 173.308594 259.246094 L 176.992188 252.433594 L 184.234375 238.78125 L 187.945312 231.738281 L 192.195312 238.164062 L 196.539062 244.660156 L 200.925781 251.140625 L 205.3125 257.601562 L 209.757812 264.03125 C 212.734375 268.316406 215.753906 272.570312 218.824219 276.792969 C 218.921875 276.925781 219.046875 277.003906 219.203125 277.035156 C 219.363281 277.066406 219.511719 277.042969 219.648438 276.960938 C 219.785156 276.878906 219.878906 276.761719 219.925781 276.605469 C 219.972656 276.453125 219.964844 276.304688 219.894531 276.160156 C 217.6875 271.453125 215.40625 266.765625 213.058594 262.089844 Z M 213.058594 262.089844 " fill-opacity="1" fill-rule="nonzero"/></g></svg>