<svg xmlns="http://www.w3.org/2000/svg" xmlns:xlink="http://www.w3.org/1999/xlink" width="500" zoomAndPan="magnify" viewBox="0 0 375 374.999991" height="500" preserveAspectRatio="xMidYMid meet" version="1.0"><defs><clipPath id="733803d5c3"><path d="M 155 90 L 324.847656 90 L 324.847656 336 L 155 336 Z M 155 90 " clip-rule="nonzero"/></clipPath><clipPath id="d85e55a79e"><path d="M 50.347656 37.5 L 221 37.5 L 221 283 L 50.347656 283 Z M 50.347656 37.5 " clip-rule="nonzero"/></clipPath></defs><g clip-path="url(#733803d5c3)"><path fill="#000000" d="M 324.699219 334.835938 C 316.804688 322.269531 308.90625 309.703125 300.996094 297.132812 L 289.128906 278.328125 L 277.21875 259.511719 L 253.355469 221.914062 L 230.96875 186.695312 L 259.792969 144.410156 L 267.378906 133.292969 C 269.917969 129.59375 272.4375 125.882812 274.996094 122.191406 L 290.324219 100.0625 L 296.523438 91.117188 L 214.773438 90.570312 L 213.050781 93.644531 C 210.53125 98.148438 208.066406 102.683594 205.582031 107.207031 L 203.722656 110.605469 L 201.890625 114.019531 L 198.203125 120.828125 L 190.917969 134.492188 L 187.203125 141.542969 C 185.785156 139.394531 184.367188 137.25 182.949219 135.105469 L 178.605469 128.613281 L 174.214844 122.136719 L 169.824219 115.679688 L 165.375 109.25 C 162.394531 104.964844 159.371094 100.707031 156.300781 96.484375 C 156.210938 96.332031 156.082031 96.234375 155.914062 96.191406 C 155.742188 96.144531 155.582031 96.167969 155.429688 96.257812 C 155.28125 96.34375 155.183594 96.472656 155.136719 96.644531 C 155.09375 96.8125 155.113281 96.972656 155.203125 97.125 C 157.429688 101.839844 159.722656 106.527344 162.074219 111.183594 L 165.589844 118.167969 L 169.15625 125.128906 L 172.75 132.070312 L 176.375 138.988281 C 178.816406 143.585938 181.253906 148.191406 183.730469 152.773438 L 187.300781 159.386719 L 191.554688 152.71875 C 194.328125 148.363281 197.039062 143.980469 199.78125 139.609375 L 207.9375 126.453125 L 211.980469 119.847656 L 214 116.558594 L 216 113.269531 C 218.027344 109.917969 220.054688 106.574219 222.0625 103.21875 C 223.667969 103.21875 272.542969 103.035156 274.484375 102.996094 L 266.085938 116.320312 C 263.699219 120.121094 261.265625 123.886719 258.859375 127.675781 L 251.605469 139.011719 L 222.558594 184.339844 L 221.042969 186.695312 L 222.558594 188.886719 L 247.742188 225.613281 L 272.980469 262.304688 L 285.601562 280.640625 L 298.265625 298.953125 C 306.699219 311.179688 315.164062 323.378906 323.65625 335.550781 C 323.753906 335.691406 323.886719 335.777344 324.054688 335.808594 C 324.222656 335.84375 324.375 335.8125 324.519531 335.71875 C 324.660156 335.625 324.75 335.492188 324.785156 335.324219 C 324.820312 335.15625 324.792969 335.003906 324.699219 334.859375 Z M 324.699219 334.835938 " fill-opacity="1" fill-rule="nonzero"/></g><g clip-path="url(#d85e55a79e)"><path fill="#000000" d="M 213.175781 262.046875 L 209.660156 255.058594 L 206.097656 248.101562 L 202.5 241.160156 L 198.871094 234.242188 C 196.429688 229.636719 194 225.035156 191.519531 220.457031 L 187.949219 213.839844 L 183.695312 220.511719 C 180.917969 224.863281 178.210938 229.25 175.464844 233.625 L 167.308594 246.78125 L 163.269531 253.386719 L 161.246094 256.675781 L 159.246094 259.964844 C 157.222656 263.3125 155.210938 266.664062 153.210938 270.011719 C 151.609375 270.011719 102.734375 270.203125 100.785156 270.242188 L 109.164062 256.914062 C 111.558594 253.117188 113.988281 249.34375 116.394531 245.5625 L 123.648438 234.222656 L 152.695312 188.894531 L 154.203125 186.535156 L 152.695312 184.34375 L 127.511719 147.691406 L 102.273438 111.082031 L 89.652344 92.785156 L 76.980469 74.507812 C 68.550781 62.316406 60.089844 50.148438 51.59375 38 C 51.496094 37.863281 51.367188 37.777344 51.203125 37.742188 C 51.042969 37.710938 50.890625 37.738281 50.746094 37.824219 C 50.601562 37.917969 50.511719 38.046875 50.472656 38.214844 C 50.433594 38.382812 50.460938 38.539062 50.550781 38.683594 C 58.449219 51.234375 66.351562 63.777344 74.253906 76.3125 L 86.121094 95.109375 L 98.03125 113.875 L 121.886719 151.40625 L 144.28125 186.542969 L 115.472656 228.828125 L 107.886719 239.945312 C 105.34375 243.636719 102.832031 247.355469 100.269531 251.042969 L 84.941406 273.171875 L 78.746094 282.121094 L 160.5 282.667969 L 162.226562 279.566406 C 164.746094 275.058594 167.214844 270.527344 169.695312 266.003906 L 171.554688 262.605469 L 173.398438 259.199219 L 177.085938 252.394531 L 184.332031 238.742188 L 188.046875 231.699219 L 192.300781 238.125 L 196.644531 244.621094 L 201.035156 251.097656 L 205.421875 257.554688 L 209.871094 263.988281 C 212.851562 268.269531 215.875 272.523438 218.949219 276.746094 C 219.042969 276.878906 219.171875 276.957031 219.328125 276.988281 C 219.484375 277.019531 219.632812 276.996094 219.769531 276.914062 C 219.910156 276.832031 220.003906 276.714844 220.050781 276.558594 C 220.097656 276.40625 220.085938 276.257812 220.019531 276.113281 C 217.808594 271.410156 215.527344 266.71875 213.175781 262.046875 Z M 213.175781 262.046875 " fill-opacity="1" fill-rule="nonzero"/></g></svg>